<?xml version="1.0" encoding="UTF-8"?>
<svg width="24px" height="24px" viewBox="0 0 24 24" version="1.1" xmlns="http://www.w3.org/2000/svg">
    <g stroke="none" stroke-width="1" fill="none" fill-rule="evenodd">
        <path d="M12,2 C15.3137085,2 18,4.6862915 18,8 L18,10 C19.1045695,10 20,10.8954305 20,12 L20,20 C20,21.1045695 19.1045695,22 18,22 L6,22 C4.8954305,22 4,21.1045695 4,20 L4,12 C4,10.8954305 4.8954305,10 6,10 L6,8 C6,4.6862915 8.6862915,2 12,2 Z M12,4 C9.790861,4 8,5.790861 8,8 L8,10 L16,10 L16,8 C16,5.790861 14.209139,4 12,4 Z M12,14 C11.4477153,14 11,14.4477153 11,15 C11,15.5522847 11.4477153,16 12,16 C12.5522847,16 13,15.5522847 13,15 C13,14.4477153 12.5522847,14 12,14 Z" fill="#6b7280" fill-rule="nonzero"/>
    </g>
</svg>
